Coordinates
version=1
nRows=8
nColumns=34
inDegrees=yes

Units are S.I. units (second, meters, Newtons, ...)
If the header above contains a line with 'inDegrees', this indicates whether rotational values are in degrees (yes) or radians (no).

endheader
time	pelvis_tilt	pelvis_list	pelvis_rotation	pelvis_tx	pelvis_ty	pelvis_tz	hip_flexion_r	hip_adduction_r	hip_rotation_r	knee_angle_r	ankle_angle_r	subtalar_angle_r	mtp_angle_r	hip_flexion_l	hip_adduction_l	hip_rotation_l	knee_angle_l	ankle_angle_l	subtalar_angle_l	mtp_angle_l	lumbar_extension	lumbar_bending	lumbar_rotation	arm_flex_r	arm_add_r	arm_rot_r	elbow_flex_r	pro_sup_r	arm_flex_l	arm_add_l	arm_rot_l	elbow_flex_l	pro_sup_l
      5.98333330	    -14.80806996	      1.07882034	      0.99493725	      0.33872940	      0.76643528	     -0.15429728	     69.70214399	     -2.47282795	      3.49233843	     14.98348452	      4.60156273	    -10.39145540	      0.00000000	     67.06259490	      5.76383042	     -5.52591582	     77.10254280	     24.79104010	    -10.55015226	      0.00000000	    -19.00169120	     -6.34890104	      1.16003622	     88.80264510	      2.84154541	     53.66357459	    120.63299849	     95.56012084	    113.51496184	      6.24110623	     80.45299660	    112.85183689	     69.75357367
      6.00000000	    -14.72843167	      0.96821283	      0.76697186	      0.33839035	      0.77465202	     -0.15475416	     69.74545957	     -2.33077466	      3.21931392	     15.72576139	      4.58160643	    -10.63773319	      0.00000000	     65.95924385	      5.64003077	     -5.51083745	     75.48254028	     24.53464329	    -10.31837739	      0.00000000	    -18.34168648	     -5.90057875	      1.25355715	     88.73721579	      3.06970765	     53.90692928	    120.83716475	     95.55475374	    113.51947642	      6.48937008	     80.38190693	    112.92825648	     69.74980462
      6.01666670	    -14.51123179	      0.84419078	      0.49198990	      0.34029719	      0.78392894	     -0.15525464	     69.27660682	     -2.08047024	      2.85625038	     16.03008781	      4.64791916	    -10.99420380	      0.00000000	     64.51086750	      5.38305370	     -5.51268292	     73.76736125	     23.84021400	    -10.07670680	      0.00000000	    -17.63057539	     -5.51242865	      1.28179421	     88.49287257	      3.08420267	     54.29189838	    121.19242506	     95.55548391	    113.09928742	      6.63215297	     80.35841542	    113.00314744	     69.74704950
      6.03333330	    -14.03098282	      0.36620651	      0.06189356	      0.34075959	      0.79437921	     -0.15545896	     68.48534764	     -1.54280377	      2.66436642	     16.40942722	      4.01081531	    -11.60172678	      0.00000000	     62.72285389	      4.87750058	     -5.09660673	     71.86095691	     23.35681202	    -10.41246765	      0.00000000	    -17.22161479	     -4.53880810	      2.02433630	     88.52760292	      2.37214719	     55.06262207	    121.90927155	     95.53690457	    112.30844321	      7.07188535	     79.76347165	    112.89947202	     69.76417693
      6.05000000	    -13.87889975	      0.28803662	     -0.24933834	      0.34090162	      0.80436826	     -0.15629877	     68.26660535	     -1.33356980	      2.31594270	     16.82548407	      3.75841180	    -11.72829825	      0.00000000	     61.23832242	      4.68578417	     -5.08702282	     69.84537629	     23.03626478	    -10.34409238	      0.00000000	    -16.44907496	     -4.19647896	      1.91453581	     88.25719773	      2.69108596	     55.37492381	    122.34515244	     95.53642287	    112.08765245	      6.82355776	     79.84760843	    112.63847001	     69.77172658
      6.06666670	    -13.60411255	      0.14710547	     -0.51889053	      0.34336367	      0.81620269	     -0.15661802	     67.66622520	     -1.05473489	      2.03149000	     17.04200538	      3.34101104	    -11.72077883	      0.00000000	     59.50053621	      4.44662329	     -4.96501125	     67.74768644	     22.18903807	    -10.18807966	      0.00000000	    -15.89329349	     -3.75397223	      1.50267061	     87.71414496	      2.92107886	     55.83686886	    123.09109068	     95.55276627	    111.47189865	      6.51494661	     79.97326266	    112.39781415	     69.78739250
      6.08333330	    -12.94951540	     -0.11910761	     -0.94085218	      0.34442284	      0.82804321	     -0.15576477	     66.63106355	     -0.59560535	      1.70600978	     17.15397772	      2.83380479	    -11.87308238	      0.00000000	     57.30799753	      3.97637747	     -4.78310548	     65.62934351	     21.25955060	    -10.71124534	      0.00000000	    -15.98149422	     -3.16444179	      1.47560464	     87.68963775	      2.78996296	     55.96964117	    123.25307925	     95.55387606	    111.06857000	      6.24463870	     79.67212495	    112.07824350	     69.85158751
      6.10000000	    -12.52315228	     -0.44414763	     -1.51027023	      0.34646514	      0.83840447	     -0.15638019	     66.00848187	     -0.05049169	      1.32129944	     17.69641547	      2.19534796	    -11.69655888	      0.00000000	     55.38551983	      3.25861115	     -4.93710651	     63.57682221	     20.64924969	    -10.58872132	      0.00000000	    -15.51170039	     -2.59842416	      1.27417540	     87.40602998	      2.83743068	     55.70754122	    123.31311018	     95.52482018	    110.43465646	      5.74330735	     79.78933023	    111.58561665	     69.88519907
